<mxfile host="app.diagrams.net" modified="2023-11-16T00:38:42.424Z" agent="Mozilla/5.0 (Windows NT 10.0; Win64; x64) AppleWebKit/537.36 (KHTML, like Gecko) Chrome/118.0.0.0 Safari/537.36" etag="1gnYWx1WUg9vcXUR6KiW" version="22.1.0" type="github" pages="4">
  <diagram name="swimlane 1" id="e7e014a7-5840-1c2e-5031-d8a46d1fe8dd">
    <mxGraphModel dx="916" dy="711" grid="1" gridSize="10" guides="1" tooltips="1" connect="1" arrows="1" fold="1" page="1" pageScale="1" pageWidth="1169" pageHeight="826" background="none" math="0" shadow="0">
      <root>
        <mxCell id="0" />
        <mxCell id="1" parent="0" />
        <mxCell id="2" value="System Manager" style="swimlane;whiteSpace=wrap" parent="1" vertex="1">
          <mxGeometry x="164.5" y="128" width="280" height="570" as="geometry" />
        </mxCell>
        <mxCell id="7" value="idle" style="" parent="2" vertex="1">
          <mxGeometry x="60" y="110" width="110" height="50" as="geometry" />
        </mxCell>
        <mxCell id="8" value="user action" style="" parent="2" vertex="1">
          <mxGeometry x="60" y="220" width="110" height="50" as="geometry" />
        </mxCell>
        <mxCell id="9" value="" style="endArrow=open;strokeColor=#FF0000;endFill=1;rounded=0" parent="2" source="7" target="8" edge="1">
          <mxGeometry relative="1" as="geometry" />
        </mxCell>
        <mxCell id="10" value="post command" style="" parent="2" vertex="1">
          <mxGeometry x="60" y="325" width="110" height="50" as="geometry" />
        </mxCell>
        <mxCell id="11" value="" style="endArrow=open;strokeColor=#FF0000;endFill=1;rounded=0" parent="2" source="8" target="10" edge="1">
          <mxGeometry relative="1" as="geometry" />
        </mxCell>
        <mxCell id="12" value="" style="edgeStyle=elbowEdgeStyle;elbow=horizontal;strokeColor=#FF0000;endArrow=open;endFill=1;rounded=0" parent="2" source="10" target="7" edge="1">
          <mxGeometry width="100" height="100" relative="1" as="geometry">
            <mxPoint x="160" y="290" as="sourcePoint" />
            <mxPoint x="260" y="190" as="targetPoint" />
            <Array as="points">
              <mxPoint x="30" y="250" />
            </Array>
          </mxGeometry>
        </mxCell>
        <mxCell id="3" value="Web interface" style="swimlane;whiteSpace=wrap;startSize=23;" parent="1" vertex="1">
          <mxGeometry x="444.5" y="128" width="280" height="570" as="geometry" />
        </mxCell>
        <mxCell id="18" value="command queue" style="" parent="3" vertex="1">
          <mxGeometry x="20" y="325" width="110" height="50" as="geometry" />
        </mxCell>
        <mxCell id="30" value="dispatch&#xa;command&#xa;worker thread" style="" parent="3" vertex="1">
          <mxGeometry x="140" y="325" width="110" height="50" as="geometry" />
        </mxCell>
        <mxCell id="34" value="" style="whiteSpace=wrap;strokeColor=#FF0000;fillColor=#FF0000" parent="3" vertex="1">
          <mxGeometry x="245" y="395" width="5" height="45" as="geometry" />
        </mxCell>
        <mxCell id="41" value="" style="edgeStyle=elbowEdgeStyle;elbow=horizontal;entryX=0;entryY=0.5;strokeColor=#FF0000;endArrow=open;endFill=1;rounded=0" parent="3" source="30" target="34" edge="1">
          <mxGeometry width="100" height="100" relative="1" as="geometry">
            <mxPoint x="60" y="480" as="sourcePoint" />
            <mxPoint x="160" y="380" as="targetPoint" />
            <Array as="points">
              <mxPoint x="195" y="400" />
            </Array>
          </mxGeometry>
        </mxCell>
        <mxCell id="5" value="" style="ellipse;shape=startState;fillColor=#000000;strokeColor=#ff0000;" parent="3" vertex="1">
          <mxGeometry x="110.5" y="52" width="30" height="30" as="geometry" />
        </mxCell>
        <mxCell id="4" value="NodeJS" style="swimlane;whiteSpace=wrap;startSize=23;" parent="1" vertex="1">
          <mxGeometry x="724.5" y="128" width="280" height="570" as="geometry" />
        </mxCell>
        <mxCell id="33" value="process&#xa;command" style="" parent="4" vertex="1">
          <mxGeometry x="90" y="405" width="110" height="50" as="geometry" />
        </mxCell>
        <mxCell id="37" value="" style="edgeStyle=none;strokeColor=#FF0000;endArrow=open;endFill=1;rounded=0" parent="4" target="33" edge="1">
          <mxGeometry width="100" height="100" relative="1" as="geometry">
            <mxPoint x="-30" y="429.5" as="sourcePoint" />
            <mxPoint x="90" y="429.5" as="targetPoint" />
          </mxGeometry>
        </mxCell>
        <mxCell id="38" value="" style="ellipse;shape=endState;fillColor=#000000;strokeColor=#ff0000" parent="4" vertex="1">
          <mxGeometry x="130" y="500" width="30" height="30" as="geometry" />
        </mxCell>
        <mxCell id="39" value="" style="endArrow=open;strokeColor=#FF0000;endFill=1;rounded=0" parent="4" source="33" target="38" edge="1">
          <mxGeometry relative="1" as="geometry" />
        </mxCell>
        <mxCell id="20" value="" style="endArrow=open;strokeColor=#FF0000;endFill=1;rounded=0" parent="1" source="10" target="18" edge="1">
          <mxGeometry relative="1" as="geometry" />
        </mxCell>
        <mxCell id="WCuO8FLHmi9QW0UlRQh0-41" value="MongoDB" style="swimlane;whiteSpace=wrap" vertex="1" parent="1">
          <mxGeometry x="1004.5" y="128" width="280" height="570" as="geometry" />
        </mxCell>
        <mxCell id="WCuO8FLHmi9QW0UlRQh0-42" value="process&#xa;command" style="" vertex="1" parent="WCuO8FLHmi9QW0UlRQh0-41">
          <mxGeometry x="90" y="405" width="110" height="50" as="geometry" />
        </mxCell>
        <mxCell id="WCuO8FLHmi9QW0UlRQh0-45" value="" style="ellipse;shape=endState;fillColor=#000000;strokeColor=#ff0000" vertex="1" parent="WCuO8FLHmi9QW0UlRQh0-41">
          <mxGeometry x="130" y="500" width="30" height="30" as="geometry" />
        </mxCell>
        <mxCell id="WCuO8FLHmi9QW0UlRQh0-46" value="" style="endArrow=open;strokeColor=#FF0000;endFill=1;rounded=0" edge="1" parent="WCuO8FLHmi9QW0UlRQh0-41" source="WCuO8FLHmi9QW0UlRQh0-42" target="WCuO8FLHmi9QW0UlRQh0-45">
          <mxGeometry relative="1" as="geometry" />
        </mxCell>
      </root>
    </mxGraphModel>
  </diagram>
  <diagram id="fbsAsmCpkHcNU2ZmZCol" name="for responding update">
    <mxGraphModel dx="733" dy="569" grid="1" gridSize="10" guides="1" tooltips="1" connect="1" arrows="1" fold="1" page="1" pageScale="1" pageWidth="850" pageHeight="1100" math="0" shadow="0">
      <root>
        <mxCell id="0" />
        <mxCell id="1" parent="0" />
        <mxCell id="8kjoX5-RscNqlxu1snq8-4" style="rounded=0;orthogonalLoop=1;jettySize=auto;html=1;exitX=0.5;exitY=1;exitDx=0;exitDy=0;edgeStyle=orthogonalEdgeStyle;shape=link;" edge="1" parent="1" source="8kjoX5-RscNqlxu1snq8-1" target="8kjoX5-RscNqlxu1snq8-2">
          <mxGeometry relative="1" as="geometry" />
        </mxCell>
        <mxCell id="8kjoX5-RscNqlxu1snq8-1" value="Merchant" style="whiteSpace=wrap;html=1;" vertex="1" parent="1">
          <mxGeometry x="520" y="370" width="120" height="60" as="geometry" />
        </mxCell>
        <mxCell id="8kjoX5-RscNqlxu1snq8-5" style="edgeStyle=orthogonalEdgeStyle;rounded=0;orthogonalLoop=1;jettySize=auto;html=1;exitX=0;exitY=0.5;exitDx=0;exitDy=0;shape=link;" edge="1" parent="1" source="8kjoX5-RscNqlxu1snq8-2" target="8kjoX5-RscNqlxu1snq8-3">
          <mxGeometry relative="1" as="geometry" />
        </mxCell>
        <mxCell id="8kjoX5-RscNqlxu1snq8-6" style="edgeStyle=orthogonalEdgeStyle;rounded=0;orthogonalLoop=1;jettySize=auto;html=1;exitX=0;exitY=0.25;exitDx=0;exitDy=0;" edge="1" parent="1" source="8kjoX5-RscNqlxu1snq8-2">
          <mxGeometry relative="1" as="geometry">
            <mxPoint x="360" y="520" as="targetPoint" />
          </mxGeometry>
        </mxCell>
        <mxCell id="8kjoX5-RscNqlxu1snq8-7" style="edgeStyle=orthogonalEdgeStyle;rounded=0;orthogonalLoop=1;jettySize=auto;html=1;exitX=0;exitY=0.75;exitDx=0;exitDy=0;" edge="1" parent="1" source="8kjoX5-RscNqlxu1snq8-2">
          <mxGeometry relative="1" as="geometry">
            <mxPoint x="360" y="560" as="targetPoint" />
          </mxGeometry>
        </mxCell>
        <mxCell id="8kjoX5-RscNqlxu1snq8-8" style="edgeStyle=orthogonalEdgeStyle;rounded=0;orthogonalLoop=1;jettySize=auto;html=1;exitX=0.75;exitY=0;exitDx=0;exitDy=0;" edge="1" parent="1" source="8kjoX5-RscNqlxu1snq8-2">
          <mxGeometry relative="1" as="geometry">
            <mxPoint x="610" y="450" as="targetPoint" />
          </mxGeometry>
        </mxCell>
        <mxCell id="8kjoX5-RscNqlxu1snq8-2" value=":addREsponseUserInterface" style="whiteSpace=wrap;html=1;" vertex="1" parent="1">
          <mxGeometry x="480" y="500" width="200" height="80" as="geometry" />
        </mxCell>
        <mxCell id="8kjoX5-RscNqlxu1snq8-3" value="Buyer Orders" style="whiteSpace=wrap;html=1;" vertex="1" parent="1">
          <mxGeometry x="200" y="510" width="120" height="60" as="geometry" />
        </mxCell>
        <mxCell id="8kjoX5-RscNqlxu1snq8-9" value="1: initialize()" style="text;strokeColor=none;align=center;fillColor=none;html=1;verticalAlign=middle;whiteSpace=wrap;rounded=0;" vertex="1" parent="1">
          <mxGeometry x="350" y="480" width="90" height="30" as="geometry" />
        </mxCell>
        <mxCell id="8kjoX5-RscNqlxu1snq8-10" value="3. updateStatus()" style="text;strokeColor=none;align=center;fillColor=none;html=1;verticalAlign=middle;whiteSpace=wrap;rounded=0;" vertex="1" parent="1">
          <mxGeometry x="350" y="570" width="110" height="30" as="geometry" />
        </mxCell>
        <mxCell id="8kjoX5-RscNqlxu1snq8-11" value="2: getDetails" style="text;strokeColor=none;align=center;fillColor=none;html=1;verticalAlign=middle;whiteSpace=wrap;rounded=0;" vertex="1" parent="1">
          <mxGeometry x="600" y="450" width="110" height="30" as="geometry" />
        </mxCell>
      </root>
    </mxGraphModel>
  </diagram>
  <diagram name="PRoduct management" id="2DTRJp9F6wFB9TDKvBW1">
    <mxGraphModel dx="733" dy="569" grid="1" gridSize="10" guides="1" tooltips="1" connect="1" arrows="1" fold="1" page="1" pageScale="1" pageWidth="850" pageHeight="1100" math="0" shadow="0">
      <root>
        <mxCell id="cMIf_C1AnjTAAJLXFNMm-0" />
        <mxCell id="cMIf_C1AnjTAAJLXFNMm-1" parent="cMIf_C1AnjTAAJLXFNMm-0" />
        <mxCell id="cMIf_C1AnjTAAJLXFNMm-2" style="rounded=0;orthogonalLoop=1;jettySize=auto;html=1;exitX=0.5;exitY=1;exitDx=0;exitDy=0;edgeStyle=orthogonalEdgeStyle;shape=link;" edge="1" parent="cMIf_C1AnjTAAJLXFNMm-1" source="cMIf_C1AnjTAAJLXFNMm-3" target="cMIf_C1AnjTAAJLXFNMm-8">
          <mxGeometry relative="1" as="geometry" />
        </mxCell>
        <mxCell id="cMIf_C1AnjTAAJLXFNMm-3" value="Merchant" style="whiteSpace=wrap;html=1;" vertex="1" parent="cMIf_C1AnjTAAJLXFNMm-1">
          <mxGeometry x="520" y="370" width="120" height="60" as="geometry" />
        </mxCell>
        <mxCell id="cMIf_C1AnjTAAJLXFNMm-4" style="edgeStyle=orthogonalEdgeStyle;rounded=0;orthogonalLoop=1;jettySize=auto;html=1;exitX=0;exitY=0.5;exitDx=0;exitDy=0;shape=link;" edge="1" parent="cMIf_C1AnjTAAJLXFNMm-1" source="cMIf_C1AnjTAAJLXFNMm-8" target="cMIf_C1AnjTAAJLXFNMm-9">
          <mxGeometry relative="1" as="geometry" />
        </mxCell>
        <mxCell id="cMIf_C1AnjTAAJLXFNMm-5" style="edgeStyle=orthogonalEdgeStyle;rounded=0;orthogonalLoop=1;jettySize=auto;html=1;exitX=0;exitY=0.25;exitDx=0;exitDy=0;" edge="1" parent="cMIf_C1AnjTAAJLXFNMm-1" source="cMIf_C1AnjTAAJLXFNMm-8">
          <mxGeometry relative="1" as="geometry">
            <mxPoint x="360" y="520" as="targetPoint" />
          </mxGeometry>
        </mxCell>
        <mxCell id="cMIf_C1AnjTAAJLXFNMm-6" style="edgeStyle=orthogonalEdgeStyle;rounded=0;orthogonalLoop=1;jettySize=auto;html=1;exitX=0;exitY=0.75;exitDx=0;exitDy=0;" edge="1" parent="cMIf_C1AnjTAAJLXFNMm-1" source="cMIf_C1AnjTAAJLXFNMm-8">
          <mxGeometry relative="1" as="geometry">
            <mxPoint x="360" y="560" as="targetPoint" />
          </mxGeometry>
        </mxCell>
        <mxCell id="zlnBunbTzwEEFFuW9AcC-0" style="edgeStyle=orthogonalEdgeStyle;rounded=0;orthogonalLoop=1;jettySize=auto;html=1;exitX=0.75;exitY=0;exitDx=0;exitDy=0;" edge="1" parent="cMIf_C1AnjTAAJLXFNMm-1" source="cMIf_C1AnjTAAJLXFNMm-8">
          <mxGeometry relative="1" as="geometry">
            <mxPoint x="630" y="470" as="targetPoint" />
          </mxGeometry>
        </mxCell>
        <mxCell id="zlnBunbTzwEEFFuW9AcC-2" style="edgeStyle=orthogonalEdgeStyle;rounded=0;orthogonalLoop=1;jettySize=auto;html=1;exitX=1;exitY=0.5;exitDx=0;exitDy=0;entryX=0;entryY=0.5;entryDx=0;entryDy=0;shape=link;" edge="1" parent="cMIf_C1AnjTAAJLXFNMm-1" source="cMIf_C1AnjTAAJLXFNMm-8" target="zlnBunbTzwEEFFuW9AcC-1">
          <mxGeometry relative="1" as="geometry" />
        </mxCell>
        <mxCell id="zlnBunbTzwEEFFuW9AcC-5" style="edgeStyle=orthogonalEdgeStyle;rounded=0;orthogonalLoop=1;jettySize=auto;html=1;exitX=1;exitY=0.75;exitDx=0;exitDy=0;" edge="1" parent="cMIf_C1AnjTAAJLXFNMm-1" source="cMIf_C1AnjTAAJLXFNMm-8">
          <mxGeometry relative="1" as="geometry">
            <mxPoint x="720" y="560" as="targetPoint" />
          </mxGeometry>
        </mxCell>
        <mxCell id="cMIf_C1AnjTAAJLXFNMm-8" value=":userInterface" style="whiteSpace=wrap;html=1;" vertex="1" parent="cMIf_C1AnjTAAJLXFNMm-1">
          <mxGeometry x="480" y="500" width="200" height="80" as="geometry" />
        </mxCell>
        <mxCell id="cMIf_C1AnjTAAJLXFNMm-9" value="productEntities" style="whiteSpace=wrap;html=1;" vertex="1" parent="cMIf_C1AnjTAAJLXFNMm-1">
          <mxGeometry x="220" y="510" width="120" height="60" as="geometry" />
        </mxCell>
        <mxCell id="cMIf_C1AnjTAAJLXFNMm-10" value="1: initialize()" style="text;strokeColor=none;align=center;fillColor=none;html=1;verticalAlign=middle;whiteSpace=wrap;rounded=0;" vertex="1" parent="cMIf_C1AnjTAAJLXFNMm-1">
          <mxGeometry x="350" y="480" width="90" height="30" as="geometry" />
        </mxCell>
        <mxCell id="cMIf_C1AnjTAAJLXFNMm-11" value="4. updateStatus()" style="text;strokeColor=none;align=center;fillColor=none;html=1;verticalAlign=middle;whiteSpace=wrap;rounded=0;" vertex="1" parent="cMIf_C1AnjTAAJLXFNMm-1">
          <mxGeometry x="350" y="570" width="110" height="30" as="geometry" />
        </mxCell>
        <mxCell id="cMIf_C1AnjTAAJLXFNMm-12" value="2: editupdateDetails()" style="text;strokeColor=none;align=center;fillColor=none;html=1;verticalAlign=middle;whiteSpace=wrap;rounded=0;" vertex="1" parent="cMIf_C1AnjTAAJLXFNMm-1">
          <mxGeometry x="640" y="460" width="120" height="30" as="geometry" />
        </mxCell>
        <mxCell id="zlnBunbTzwEEFFuW9AcC-1" value="Admin" style="whiteSpace=wrap;html=1;" vertex="1" parent="cMIf_C1AnjTAAJLXFNMm-1">
          <mxGeometry x="800" y="510" width="120" height="60" as="geometry" />
        </mxCell>
        <mxCell id="zlnBunbTzwEEFFuW9AcC-4" value="3: approveEdits()" style="text;strokeColor=none;align=center;fillColor=none;html=1;verticalAlign=middle;whiteSpace=wrap;rounded=0;" vertex="1" parent="cMIf_C1AnjTAAJLXFNMm-1">
          <mxGeometry x="680" y="560" width="120" height="30" as="geometry" />
        </mxCell>
      </root>
    </mxGraphModel>
  </diagram>
  <diagram name="checkout and payment" id="82y1DQpu9PjCFgcIuirA">
    <mxGraphModel dx="977" dy="759" grid="1" gridSize="10" guides="1" tooltips="1" connect="1" arrows="1" fold="1" page="1" pageScale="1" pageWidth="850" pageHeight="1100" math="0" shadow="0">
      <root>
        <mxCell id="ILel704dRleTAbgK5eKH-0" />
        <mxCell id="ILel704dRleTAbgK5eKH-1" parent="ILel704dRleTAbgK5eKH-0" />
        <mxCell id="ILel704dRleTAbgK5eKH-2" style="rounded=0;orthogonalLoop=1;jettySize=auto;html=1;exitX=0.5;exitY=1;exitDx=0;exitDy=0;edgeStyle=orthogonalEdgeStyle;shape=link;" edge="1" parent="ILel704dRleTAbgK5eKH-1" source="ILel704dRleTAbgK5eKH-3" target="ILel704dRleTAbgK5eKH-8">
          <mxGeometry relative="1" as="geometry" />
        </mxCell>
        <mxCell id="tzTE7ib7F8kDqVZ1tQAj-1" value="" style="edgeStyle=orthogonalEdgeStyle;rounded=0;orthogonalLoop=1;jettySize=auto;html=1;shape=link;" edge="1" parent="ILel704dRleTAbgK5eKH-1" source="ILel704dRleTAbgK5eKH-3" target="tzTE7ib7F8kDqVZ1tQAj-0">
          <mxGeometry relative="1" as="geometry" />
        </mxCell>
        <mxCell id="ILel704dRleTAbgK5eKH-3" value="Merchant" style="whiteSpace=wrap;html=1;" vertex="1" parent="ILel704dRleTAbgK5eKH-1">
          <mxGeometry x="520" y="370" width="120" height="60" as="geometry" />
        </mxCell>
        <mxCell id="ILel704dRleTAbgK5eKH-4" style="edgeStyle=orthogonalEdgeStyle;rounded=0;orthogonalLoop=1;jettySize=auto;html=1;exitX=0;exitY=0.5;exitDx=0;exitDy=0;shape=link;" edge="1" parent="ILel704dRleTAbgK5eKH-1" source="ILel704dRleTAbgK5eKH-8" target="ILel704dRleTAbgK5eKH-9">
          <mxGeometry relative="1" as="geometry" />
        </mxCell>
        <mxCell id="ILel704dRleTAbgK5eKH-5" style="edgeStyle=orthogonalEdgeStyle;rounded=0;orthogonalLoop=1;jettySize=auto;html=1;exitX=0;exitY=0.25;exitDx=0;exitDy=0;" edge="1" parent="ILel704dRleTAbgK5eKH-1" source="ILel704dRleTAbgK5eKH-8">
          <mxGeometry relative="1" as="geometry">
            <mxPoint x="360" y="520" as="targetPoint" />
          </mxGeometry>
        </mxCell>
        <mxCell id="ILel704dRleTAbgK5eKH-6" style="edgeStyle=orthogonalEdgeStyle;rounded=0;orthogonalLoop=1;jettySize=auto;html=1;exitX=0;exitY=0.75;exitDx=0;exitDy=0;" edge="1" parent="ILel704dRleTAbgK5eKH-1" source="ILel704dRleTAbgK5eKH-8">
          <mxGeometry relative="1" as="geometry">
            <mxPoint x="360" y="560" as="targetPoint" />
          </mxGeometry>
        </mxCell>
        <mxCell id="ILel704dRleTAbgK5eKH-7" style="edgeStyle=orthogonalEdgeStyle;rounded=0;orthogonalLoop=1;jettySize=auto;html=1;exitX=0.75;exitY=0;exitDx=0;exitDy=0;" edge="1" parent="ILel704dRleTAbgK5eKH-1" source="ILel704dRleTAbgK5eKH-8">
          <mxGeometry relative="1" as="geometry">
            <mxPoint x="630" y="450" as="targetPoint" />
            <Array as="points">
              <mxPoint x="630" y="460" />
            </Array>
          </mxGeometry>
        </mxCell>
        <mxCell id="ILel704dRleTAbgK5eKH-8" value=":UserInterface" style="whiteSpace=wrap;html=1;" vertex="1" parent="ILel704dRleTAbgK5eKH-1">
          <mxGeometry x="480" y="500" width="200" height="80" as="geometry" />
        </mxCell>
        <mxCell id="tzTE7ib7F8kDqVZ1tQAj-2" value="" style="edgeStyle=orthogonalEdgeStyle;rounded=0;orthogonalLoop=1;jettySize=auto;html=1;shape=link;" edge="1" parent="ILel704dRleTAbgK5eKH-1" source="ILel704dRleTAbgK5eKH-9" target="tzTE7ib7F8kDqVZ1tQAj-0">
          <mxGeometry relative="1" as="geometry" />
        </mxCell>
        <mxCell id="tzTE7ib7F8kDqVZ1tQAj-7" style="edgeStyle=orthogonalEdgeStyle;rounded=0;orthogonalLoop=1;jettySize=auto;html=1;exitX=0.25;exitY=0;exitDx=0;exitDy=0;" edge="1" parent="ILel704dRleTAbgK5eKH-1" source="ILel704dRleTAbgK5eKH-9">
          <mxGeometry relative="1" as="geometry">
            <mxPoint x="229.66666666666674" y="470" as="targetPoint" />
          </mxGeometry>
        </mxCell>
        <mxCell id="ILel704dRleTAbgK5eKH-9" value="Buyer" style="whiteSpace=wrap;html=1;" vertex="1" parent="ILel704dRleTAbgK5eKH-1">
          <mxGeometry x="200" y="510" width="120" height="60" as="geometry" />
        </mxCell>
        <mxCell id="ILel704dRleTAbgK5eKH-10" value="3.updateStatus()" style="text;strokeColor=none;align=center;fillColor=none;html=1;verticalAlign=middle;whiteSpace=wrap;rounded=0;" vertex="1" parent="ILel704dRleTAbgK5eKH-1">
          <mxGeometry x="370" y="490" width="90" height="30" as="geometry" />
        </mxCell>
        <mxCell id="ILel704dRleTAbgK5eKH-11" value="1. initialize()" style="text;strokeColor=none;align=center;fillColor=none;html=1;verticalAlign=middle;whiteSpace=wrap;rounded=0;" vertex="1" parent="ILel704dRleTAbgK5eKH-1">
          <mxGeometry x="350" y="570" width="110" height="30" as="geometry" />
        </mxCell>
        <mxCell id="ILel704dRleTAbgK5eKH-12" value="2: getDetails()" style="text;strokeColor=none;align=center;fillColor=none;html=1;verticalAlign=middle;whiteSpace=wrap;rounded=0;" vertex="1" parent="ILel704dRleTAbgK5eKH-1">
          <mxGeometry x="620" y="470" width="110" height="30" as="geometry" />
        </mxCell>
        <mxCell id="tzTE7ib7F8kDqVZ1tQAj-4" style="edgeStyle=orthogonalEdgeStyle;rounded=0;orthogonalLoop=1;jettySize=auto;html=1;exitX=1;exitY=0.75;exitDx=0;exitDy=0;" edge="1" parent="ILel704dRleTAbgK5eKH-1" source="tzTE7ib7F8kDqVZ1tQAj-0">
          <mxGeometry relative="1" as="geometry">
            <mxPoint x="440" y="419.66666666666674" as="targetPoint" />
          </mxGeometry>
        </mxCell>
        <mxCell id="tzTE7ib7F8kDqVZ1tQAj-0" value=":externalPaymentGateway" style="whiteSpace=wrap;html=1;" vertex="1" parent="ILel704dRleTAbgK5eKH-1">
          <mxGeometry x="160" y="360" width="200" height="80" as="geometry" />
        </mxCell>
        <mxCell id="tzTE7ib7F8kDqVZ1tQAj-5" value="5. getPaymentUpdate()" style="text;strokeColor=none;align=center;fillColor=none;html=1;verticalAlign=middle;whiteSpace=wrap;rounded=0;" vertex="1" parent="ILel704dRleTAbgK5eKH-1">
          <mxGeometry x="370" y="420" width="140" height="30" as="geometry" />
        </mxCell>
        <mxCell id="tzTE7ib7F8kDqVZ1tQAj-6" value="4. paymentProcess()" style="text;strokeColor=none;align=center;fillColor=none;html=1;verticalAlign=middle;whiteSpace=wrap;rounded=0;" vertex="1" parent="ILel704dRleTAbgK5eKH-1">
          <mxGeometry x="100" y="470" width="120" height="30" as="geometry" />
        </mxCell>
      </root>
    </mxGraphModel>
  </diagram>
</mxfile>
